<svg width="16" height="14" viewBox="0 0 16 14" fill="none" xmlns="http://www.w3.org/2000/svg">
<path d="M14.75 4.18751H11.3328L11.9284 0.913055C11.9523 0.767466 11.918 0.618306 11.833 0.49772C11.748 0.377135 11.619 0.294779 11.4739 0.268403C11.3287 0.242026 11.179 0.27374 11.057 0.356709C10.935 0.439679 10.8505 0.567262 10.8216 0.711961L10.1888 4.18751H6.83281L7.42836 0.913055C7.45228 0.767466 7.41805 0.618306 7.33303 0.49772C7.24802 0.377135 7.11903 0.294779 6.97387 0.268403C6.8287 0.242026 6.67898 0.27374 6.55698 0.356709C6.43498 0.439679 6.35046 0.567262 6.32164 0.711961L5.68953 4.18751H2.375C2.22582 4.18751 2.08274 4.24677 1.97725 4.35226C1.87176 4.45775 1.8125 4.60082 1.8125 4.75001C1.8125 4.89919 1.87176 5.04227 1.97725 5.14776C2.08274 5.25324 2.22582 5.31251 2.375 5.31251H5.48492L4.87109 8.68751H1.25C1.10082 8.68751 0.957742 8.74677 0.852252 8.85226C0.746763 8.95775 0.6875 9.10082 0.6875 9.25001C0.6875 9.39919 0.746763 9.54227 0.852252 9.64776C0.957742 9.75324 1.10082 9.81251 1.25 9.81251H4.66719L4.07164 13.087C4.045 13.2337 4.07773 13.385 4.16265 13.5077C4.24756 13.6303 4.3777 13.7142 4.52445 13.7409C4.55762 13.747 4.59127 13.7501 4.625 13.75C4.75661 13.7498 4.88399 13.7035 4.98497 13.6191C5.08595 13.5347 5.15413 13.4175 5.17766 13.2881L5.81047 9.81251H9.16719L8.57164 13.087C8.545 13.2337 8.57773 13.385 8.66265 13.5077C8.74756 13.6303 8.8777 13.7142 9.02445 13.7409C9.05762 13.747 9.09127 13.7501 9.125 13.75C9.25661 13.7498 9.38399 13.7035 9.48497 13.6191C9.58595 13.5347 9.65413 13.4175 9.67766 13.2881L10.3105 9.81251H13.625C13.7742 9.81251 13.9173 9.75324 14.0227 9.64776C14.1282 9.54227 14.1875 9.39919 14.1875 9.25001C14.1875 9.10082 14.1282 8.95775 14.0227 8.85226C13.9173 8.74677 13.7742 8.68751 13.625 8.68751H10.5151L11.1289 5.31251H14.75C14.8992 5.31251 15.0423 5.25324 15.1477 5.14776C15.2532 5.04227 15.3125 4.89919 15.3125 4.75001C15.3125 4.60082 15.2532 4.45775 15.1477 4.35226C15.0423 4.24677 14.8992 4.18751 14.75 4.18751ZM9.37109 8.68751H6.01508L6.62891 5.31251H9.98492L9.37109 8.68751Z" fill="#005C93"/>
</svg>
