<svg width="18" height="12" viewBox="0 0 18 12" fill="none" xmlns="http://www.w3.org/2000/svg">
<path d="M17.1731 1.21878C17.0921 1.16824 16.9996 1.13914 16.9043 1.13422C16.809 1.12929 16.714 1.14872 16.6282 1.19065C13.6097 2.66721 11.4539 1.97534 9.17508 1.24549C6.78445 0.479791 4.30594 -0.311224 0.881719 1.36081C0.786045 1.4067 0.705303 1.47872 0.648818 1.56855C0.592333 1.65838 0.562408 1.76235 0.5625 1.86846V10.301C0.562487 10.3965 0.586757 10.4904 0.633027 10.5738C0.679296 10.6573 0.746044 10.7276 0.826988 10.7782C0.907931 10.8288 1.00041 10.8579 1.09572 10.8629C1.19103 10.8678 1.28603 10.8485 1.3718 10.8066C4.39031 9.33003 6.54609 10.0219 8.82844 10.7517C10.1813 11.1842 11.5594 11.625 13.1175 11.625C14.3191 11.625 15.6298 11.3635 17.119 10.6364C17.2136 10.5903 17.2933 10.5185 17.3491 10.4292C17.4049 10.34 17.4346 10.2368 17.4347 10.1316V1.69901C17.4355 1.60332 17.412 1.509 17.3662 1.42497C17.3204 1.34093 17.254 1.26997 17.1731 1.21878ZM16.3125 9.7737C13.4578 11.0513 11.373 10.3847 9.17156 9.68089C7.81875 9.24846 6.44063 8.8076 4.8825 8.8076C3.78781 8.81292 2.70425 9.02772 1.69031 9.44042V2.22635C4.545 0.948776 6.62977 1.61534 8.83125 2.31917C11.0327 3.02299 13.2989 3.75003 16.3125 2.56104V9.7737ZM9 3.75003C8.55499 3.75003 8.11998 3.88199 7.74997 4.12922C7.37996 4.37645 7.09157 4.72785 6.92127 5.13899C6.75097 5.55012 6.70642 6.00252 6.79323 6.43898C6.88005 6.87544 7.09434 7.27635 7.40901 7.59102C7.72368 7.90568 8.12459 8.11998 8.56105 8.20679C8.99751 8.29361 9.4499 8.24905 9.86104 8.07876C10.2722 7.90846 10.6236 7.62007 10.8708 7.25006C11.118 6.88005 11.25 6.44503 11.25 6.00003C11.25 5.40329 11.0129 4.83099 10.591 4.40904C10.169 3.98708 9.59674 3.75003 9 3.75003ZM9 7.12503C8.7775 7.12503 8.55999 7.05905 8.37498 6.93543C8.18998 6.81181 8.04578 6.63611 7.96064 6.43055C7.87549 6.22498 7.85321 5.99878 7.89662 5.78055C7.94003 5.56232 8.04717 5.36187 8.20451 5.20453C8.36184 5.0472 8.5623 4.94005 8.78052 4.89664C8.99875 4.85323 9.22495 4.87551 9.43052 4.96066C9.63609 5.04581 9.81179 5.19 9.9354 5.37501C10.059 5.56002 10.125 5.77752 10.125 6.00003C10.125 6.2984 10.0065 6.58454 9.7955 6.79552C9.58452 7.0065 9.29837 7.12503 9 7.12503ZM3.9375 3.75003V7.12503C3.9375 7.27421 3.87824 7.41729 3.77275 7.52277C3.66726 7.62826 3.52418 7.68753 3.375 7.68753C3.22582 7.68753 3.08274 7.62826 2.97725 7.52277C2.87176 7.41729 2.8125 7.27421 2.8125 7.12503V3.75003C2.8125 3.60084 2.87176 3.45777 2.97725 3.35228C3.08274 3.24679 3.22582 3.18753 3.375 3.18753C3.52418 3.18753 3.66726 3.24679 3.77275 3.35228C3.87824 3.45777 3.9375 3.60084 3.9375 3.75003ZM14.0625 8.25003V4.87503C14.0625 4.72584 14.1218 4.58277 14.2273 4.47728C14.3327 4.37179 14.4758 4.31253 14.625 4.31253C14.7742 4.31253 14.9173 4.37179 15.0227 4.47728C15.1282 4.58277 15.1875 4.72584 15.1875 4.87503V8.25003C15.1875 8.39921 15.1282 8.54229 15.0227 8.64777C14.9173 8.75326 14.7742 8.81253 14.625 8.81253C14.4758 8.81253 14.3327 8.75326 14.2273 8.64777C14.1218 8.54229 14.0625 8.39921 14.0625 8.25003Z" fill="#005C93"/>
</svg>
